<svg id="图层_1" data-name="图层 1" xmlns="http://www.w3.org/2000/svg" viewBox="0 0 389.01 85.89"><defs><style>.cls-1{fill:#c73523;}.cls-2{fill:#555;}</style></defs><title>fltaradio_logo_cn [转换]</title><path class="cls-1" d="M204.21,339c.5-2.4-.5-4.9-2.9-7.6l-3.8-3.2,1.2,4a8.5,8.5,0,0,1-2.3,8.4l-3.8,2.7c-4.7,1.8-11.3,3.1-19.9,4.1l-11.4.9,10.5-3.2c7.5-2.4,12.5-4.2,14.9-5.5,7.3-3.9,9.3-7.7,6.1-11.4a15.64,15.64,0,0,0-9.7-5.2,42.47,42.47,0,0,0-24.9,2.7,43.4,43.4,0,0,0-7.1,3.7l-2.4,1.8a39.91,39.91,0,0,0-15.4,30.1,44.19,44.19,0,0,0,1.8,16.4,33.88,33.88,0,0,1,14.6-18.3,37.81,37.81,0,0,1,10.2-4.7,104.87,104.87,0,0,1,16.2-3.3c3.4-.5,7.7-1.1,13.2-1.8C198.11,348.21,203.11,344.61,204.21,339Z" transform="translate(-133.19 -322.24)"/><path class="cls-1" d="M211.11,340.81a19,19,0,0,1-4.4,8.4c-5,5.8-12.4,9.3-22.4,10.5-7.1.6-12.6,1.2-16.6,1.8-7.1,1.2-12.9,3-17.4,5.6a19.72,19.72,0,0,0-8.7,10,16.41,16.41,0,0,0,1.2,14.6c1.1,1.9,3.9,4.6,8.3,8.1a35.26,35.26,0,0,1-1.9-7.3c-.8-5.5-.1-9.8,2.3-12.9,5-6.2,12.1-9.6,21.4-9.9q4.05-.15,16.2-.9a83.35,83.35,0,0,0-13.4,3.2c-9.4,3.3-15,7.6-17,13a22.16,22.16,0,0,0-1.5,10.7c.6,4.9,2.9,8.3,7,10.3,10.6,3.7,21.4,2.6,32.4-3.6a41.15,41.15,0,0,0,11.2-9.1c7.5-8.1,11.1-17.3,10.8-27.7a39.11,39.11,0,0,0-.9-9.2C216.51,349.51,214.31,344.41,211.11,340.81Z" transform="translate(-133.19 -322.24)"/><path class="cls-2" d="M240.41,353.31a4.85,4.85,0,0,0,2.9,1.3,9.91,9.91,0,0,0,2.9-.6c2.8-.9,6-1.8,9.6-2.8s5.4-1.4,5.4-1.4h.1c0,.1-.1,1.1-.4,2.9a51.08,51.08,0,0,0-.4,7.5c0,7.9,1,13.8,3.2,17.7a18,18,0,0,0,9.7,8.3c4.2,1.6,7.3,2.5,9.1,2.5s2.7-.7,2.7-2a5.76,5.76,0,0,0-.2-1c-.1-.5-.3-1.5-.5-3s-.2-3.2-.3-4.9-.3-2.5-.8-2.5-.9.5-1.2,1.5a29.77,29.77,0,0,1-2,4.8,2,2,0,0,1-1.9,1.1c-.9,0-2.6-.6-5.2-2a15.18,15.18,0,0,1-6.4-6.4,20,20,0,0,1-2.4-10.7c2.9,2.1,5.9,4.4,9,6.6a7.26,7.26,0,0,0,3.9,1.8q1.5,0,1.5-1.2a6.65,6.65,0,0,0-.3-2.1,15.05,15.05,0,0,0-1-1.7,7.89,7.89,0,0,0-1.5-1.2c-.5-.2-1.7-.7-3.5-1.4s-4-1.2-6.5-1.8a87.26,87.26,0,0,0,8.5-4.1,45.78,45.78,0,0,1,4.4-2.4c1-.5,1.5-1.1,1.5-1.9s-.8-1.4-2.3-2.2a9.93,9.93,0,0,0-3.1-1,1.29,1.29,0,0,0-1.1.5,4.44,4.44,0,0,0-.5,2q-.45,2.1-9,8.4v-.2a56.3,56.3,0,0,1,.7-7.5q.75-3.3,2.4-4.5c1.1-.8,1.6-1.5,1.6-2.2s-.8-1.5-2.3-2.1a9.85,9.85,0,0,0-3.3-1,4.29,4.29,0,0,0-2.3,1.1,28.72,28.72,0,0,1-9.5,3.3,54.58,54.58,0,0,1-8.9,1.4,12.47,12.47,0,0,0-3.3.2,1,1,0,0,0-.8.9C238.61,351.81,239.21,352.51,240.41,353.31Z" transform="translate(-133.19 -322.24)"/><path class="cls-2" d="M312,350.71a4.08,4.08,0,0,0-1.3-3.2,8.09,8.09,0,0,0-3.4-2,13,13,0,0,0-3.2-.6.9.9,0,0,0-1,1c0,.7.9,2.2,2.7,4.4s3.3,3.4,4.5,3.4S312,352.71,312,350.71Z" transform="translate(-133.19 -322.24)"/><path class="cls-2" d="M389.81,355.21c1.9-.2,3.3-.3,4.3-.3a52,52,0,0,0,8.6-.8q1.5-.45,1.5-1.5c0-.6-.6-1.3-1.9-2a8.62,8.62,0,0,0-3.5-.9,13.59,13.59,0,0,0-3.8.6c-4.2,1-8.3,1.8-12.1,2.4a63.46,63.46,0,0,1-9.2.9,14.25,14.25,0,0,0-4.5-1.2q-1.5,0-1.5.9a3.24,3.24,0,0,0,.9,1.9c.5.8.7,2.3.7,4.6a68.75,68.75,0,0,1-.7,9,35.7,35.7,0,0,1-3,10.6,41.8,41.8,0,0,1-5.3,8.4c-1.5,1.2-2.2,2.1-2.2,2.6s.3.8.8.8c.8,0,2.2-.8,4.4-2.6a26.45,26.45,0,0,0,5.9-7.3,42.27,42.27,0,0,0,3.9-12,60.34,60.34,0,0,0,.9-12.8,17,17,0,0,0,3,.2,61.83,61.83,0,0,0,8.8-1C386.51,355.61,387.81,355.41,389.81,355.21Z" transform="translate(-133.19 -322.24)"/><path class="cls-2" d="M388.81,348.71a4.75,4.75,0,0,0,.6-2.4,3.73,3.73,0,0,0-1.4-3,9.05,9.05,0,0,0-3.5-1.9,12.87,12.87,0,0,0-3.3-.6c-.7,0-1.1.3-1.1,1s.8,2.1,2.5,4.5,3.1,3.5,4.3,3.5A2.26,2.26,0,0,0,388.81,348.71Z" transform="translate(-133.19 -322.24)"/><path class="cls-2" d="M431.81,340a8.14,8.14,0,0,0-3.5-.9c-.9,0-1.4.2-1.4.8a2.52,2.52,0,0,0,.6,1.7,10.32,10.32,0,0,1,1.1,4.2,67.8,67.8,0,0,1,.3,10.2c-4.1,1-6.6,1.7-7.6,1.8s-1.5.6-1.5,1a1.7,1.7,0,0,0,.8,1.3,6.12,6.12,0,0,0,3,.6,18.94,18.94,0,0,0,5.3-.9c0,1.7,0,3.6-.1,5.8-6.5,3.9-10.3,6-11.7,6.2s-2,.7-2,1.3a3.32,3.32,0,0,0,1.5,2.2,4.33,4.33,0,0,0,2.5,1.2c.7,0,1.5-.7,2.6-2.2a55.93,55.93,0,0,0,6.9-5.4c0,3.1-.2,5.9-.3,8.5a38.27,38.27,0,0,1-.4,4.3.6.6,0,0,1-.6.3,9.29,9.29,0,0,1-2.5-.5c-1.2-.1-1.7.2-1.7.9a.91.91,0,0,0,.4.8,26.06,26.06,0,0,1,2.3,2.6,20,20,0,0,1,1.8,3,1.38,1.38,0,0,0,1.3.6c1,0,1.8-.9,2.5-2.6a15.72,15.72,0,0,0,1-5.8s0-1.7-.2-5-.2-6.3-.3-8.9c2.8-2.1,4.2-3.4,4.2-3.8,0-.1-.1-.3-.4-.6a1.14,1.14,0,0,0-.8-.3c-.6,0-1.6.6-3,1.7v-4.9q1-.3,2.7-.9a6.55,6.55,0,0,0,2.1-1,1.28,1.28,0,0,0,.4-1,1.51,1.51,0,0,0-.7-1.1,2.61,2.61,0,0,0-1.8-.6,7.34,7.34,0,0,0-2.6.6c.2-6.3.6-9.8,1.1-10.5a3.7,3.7,0,0,0,.9-2.1C434,341.51,433.31,340.61,431.81,340Z" transform="translate(-133.19 -322.24)"/><path class="cls-2" d="M438.91,349.61q0,.9,1.5.9a22.58,22.58,0,0,0,6.2-1q1.5,1.65,1.5,7.8a99.93,99.93,0,0,1-10.6,2c-1.5.1-2.2.6-2.2,1.4,0,.4.3.8.9,1.3a3.84,3.84,0,0,0,1.7.6,17.23,17.23,0,0,0,3.6-.9c2-.5,3.6-1,5-1.4-.9,1-2.2,2.3-3.9,4a58,58,0,0,1-8.4,6.3c-.6.5-1,.9-1,1.4s.4.8,1.1.8a12.14,12.14,0,0,0,4-1.3,37.45,37.45,0,0,0,5.9-3.9,12,12,0,0,0,3.9-5.6,22.18,22.18,0,0,1-.3,3.7,16.74,16.74,0,0,0-.3,2.8,2.79,2.79,0,0,0,.6,1.8,1.87,1.87,0,0,0,1.4.8h.1c-3.9.6-7.3,1.2-10.2,1.6a2.77,2.77,0,0,0-.9-.1c-1.3,0-1.9.4-1.9,1.1a1.88,1.88,0,0,0,.8,1.7c.5.4,1,1.6,1.5,3.4s.9,4.1,1.4,6.7,1.1,4,1.9,4a1.39,1.39,0,0,0,1-.5,2.9,2.9,0,0,0,.3-1.4,7.5,7.5,0,0,0,2-.1,84.22,84.22,0,0,1,8.6-.9,1.08,1.08,0,0,1,.8.2c.2.1.4.6.9,1.6a5.37,5.37,0,0,0,1,1.9,1.15,1.15,0,0,0,1.1.6c.5,0,1.2-.6,2-1.7s1.7-4.7,2.7-10.7a11,11,0,0,0,.7-1.7,6.15,6.15,0,0,1,1.1-1.8,2.27,2.27,0,0,0,.6-1.6q0-1.05-3-2.4a12.08,12.08,0,0,0-4.1-1.5,5,5,0,0,0-1.2.2c-.5.2-2.8.6-6.8,1.3h-.1c.4,0,.8-.4,1.1-1a7,7,0,0,0,.5-2.5,24.62,24.62,0,0,0-.2-2.6c0-.8-.1-2-.1-3.5,5.5,4.8,8.6,7.4,9.3,7.9a6.76,6.76,0,0,0,3.1.7,23.88,23.88,0,0,0,5-.8,17.46,17.46,0,0,0,3.7-1,1.22,1.22,0,0,0,.6-1q0-1.05-1.8-1.2a40.33,40.33,0,0,1-19.1-6.6,69.91,69.91,0,0,1,9.6-1.2c1.9-.2,2.8-.6,2.8-1.3a2.39,2.39,0,0,0-1-1.8,4.6,4.6,0,0,0-2.9-.7,11.59,11.59,0,0,0-3.4.5c-1.1.4-2.9.9-5.7,1.8.1-1.9.3-3.2.4-3.9a6.17,6.17,0,0,0,.2-1.8,1.58,1.58,0,0,0-.8-1.3,6.34,6.34,0,0,0-2.8-1,13.42,13.42,0,0,0,3.9-1c1.9-.6,3.3-1.1,4.3-1.3a9.5,9.5,0,0,0,1.8-.7,1,1,0,0,0,.4-.9,1.39,1.39,0,0,0-.5-1.1,12.93,12.93,0,0,0-2.4-1.5,8.68,8.68,0,0,0-2.5-1q-.75,0-1.2,1.2c-.4.8-1.7,1.7-3.8,2.8a43.88,43.88,0,0,1-8.2,3.2Q438.91,348.71,438.91,349.61ZM444,380a3.73,3.73,0,0,0,1.6.4,20.19,20.19,0,0,0,2.6-.3v4.1c-.8.1-2.3.4-4.7.7a53.29,53.29,0,0,0-1.5-10q1.2-.15,5.4-.9a6.71,6.71,0,0,1,.8,3.1c-1.4.3-2.5.5-3.5.7s-1.6.5-1.6,1A1.35,1.35,0,0,0,444,380Zm9.3-4a3.42,3.42,0,0,0-1.8.4,3,3,0,0,0,.4-1.3c0-.8-.5-1.3-1.5-1.6,3.6-.5,5.7-.7,6.4-.7a2.68,2.68,0,0,1,1.3.3,6.74,6.74,0,0,1,.2,2.1,32.83,32.83,0,0,1-.6,5.2,22.72,22.72,0,0,1-.7,3.7.76.76,0,0,0-.1.4,6,6,0,0,0-.7-.6,2.92,2.92,0,0,0-2.2-.7,7.53,7.53,0,0,0-2.9.6l.2-4.1,4.2-.8c.7-.1,1-.5,1-1s-.3-1-1-1.4A6.31,6.31,0,0,0,453.31,376Z" transform="translate(-133.19 -322.24)"/><path class="cls-2" d="M439.21,352.21a8,8,0,0,0,1.2,3.2c.8,1.4,1.6,2.2,2.3,2.2a1.7,1.7,0,0,0,1.6-.8,2.93,2.93,0,0,0,.4-1.6,3.47,3.47,0,0,0-1.5-2.8,5.55,5.55,0,0,0-2.9-1.1C439.61,351.31,439.21,351.61,439.21,352.21Z" transform="translate(-133.19 -322.24)"/><path class="cls-2" d="M483.71,347.81a5.61,5.61,0,0,0,.6,2.2c.5.9.7,3.5.7,8s-.3,8.8-.7,13.1-1.1,7.4-1.9,9.2a4.48,4.48,0,0,0-.4,2,9.28,9.28,0,0,0,.7,3.1c.4,1.4,1.1,2.1,1.8,2.1s1.4-.8,2.1-2.4,1.2-5.7,1.7-12.4.8-13.9,1-21.5c5.5-.7,10.5-1.3,15-1.7s7.3-.7,8.3-.7a4.06,4.06,0,0,1,2.1.5,2,2,0,0,1,.8,1.5,61.72,61.72,0,0,1,.6,7.5c.2,4.3.3,8.3.3,12.1s-.1,6.6-.2,8.5a23,23,0,0,1-.5,3.3,1.27,1.27,0,0,1-.9.4,7.87,7.87,0,0,1-2.2-.4,12.26,12.26,0,0,0-2.1-.4.74.74,0,0,0-.8.8,2.81,2.81,0,0,0,1,1.7,21.13,21.13,0,0,1,2.2,2.6,28,28,0,0,1,1.9,2.8,2.07,2.07,0,0,0,1.8,1.3c1,0,2.1-1,3.2-3.2a12,12,0,0,0,1.7-6l-.6-14.1c-.3-4.6-.4-8-.4-10.1a43.21,43.21,0,0,1,.2-4.6,6.19,6.19,0,0,1,.8-2.4,2.7,2.7,0,0,0,.7-1.7c0-.8-.9-1.8-2.6-3s-2.9-1.7-3.6-1.7a5.09,5.09,0,0,0-2,.4,20.12,20.12,0,0,1-3.6.8c-1.7.2-5.2.6-10.6,1.3s-9.2,1-11.4,1a12.9,12.9,0,0,0-3.6-.9C484,346.81,483.71,347.11,483.71,347.81Z" transform="translate(-133.19 -322.24)"/><path class="cls-2" d="M453.81,354.41c.4,0,.7,0,.9-.2,3.8-2.3,6.1-3.6,6.9-3.8a1.29,1.29,0,0,0,1.1-1.3c0-.7-.6-1.4-1.8-2a6.14,6.14,0,0,0-2.6-1,1.66,1.66,0,0,0-1.2.5,5.27,5.27,0,0,0-.5,1.5,3.59,3.59,0,0,1-.7,1.8,20.17,20.17,0,0,1-2.3,2.6,2.08,2.08,0,0,0-.5,1.2C453.11,354.21,453.31,354.41,453.81,354.41Z" transform="translate(-133.19 -322.24)"/><path class="cls-2" d="M508.11,354.81a5.31,5.31,0,0,1,.1,1.4,22.77,22.77,0,0,1-1,6.4q0-.6-2.1-2.1l-1-1.3c-.6-.7-1.1-1.1-1.5-1.1q-1.2,0-1.2.9a2.39,2.39,0,0,0,.5,1.4c2.1,2.6,3.4,4.4,4.1,5.3-2,4.5-4,8-6.2,10.4a2.59,2.59,0,0,0-.9,1.7c0,.5.3.7,1,.7.9,0,2.2-.9,4-2.7a24,24,0,0,0,4.4-7c.9,1.8,1.7,3.5,2.5,5s1.4,2.3,2.2,2.3c1.1,0,1.7-1.1,1.7-3.4,0-1.7-1.6-4.2-4.7-7.6,1.8-4.8,2.8-7.6,3.2-8.3a2,2,0,0,0,.3-1.1,2.69,2.69,0,0,0-1.8-2.3,5.91,5.91,0,0,0-2.8-1c-.6,0-1,.3-1,.9A6.05,6.05,0,0,0,508.11,354.81Z" transform="translate(-133.19 -322.24)"/><path class="cls-2" d="M491.81,357a1.88,1.88,0,0,0-.8-.2c-.7,0-1.1.3-1.1.8a2.12,2.12,0,0,0,.4,1.4c.7,1,2.2,3.3,4.2,6.8a105.12,105.12,0,0,1-5.7,10.5,3.52,3.52,0,0,0-.9,1.9.63.63,0,0,0,.7.7c.7,0,1.9-.9,3.5-2.7a25.36,25.36,0,0,0,4.4-7.4c.5,1.3,1,2.6,1.5,3.7.4,1.3,1,1.9,1.9,1.9,1.1,0,1.6-.9,1.6-2.9a6.6,6.6,0,0,0-.6-2.7,19.81,19.81,0,0,0-2.6-3.7c1.9-4.5,3-7,3.3-7.4a3,3,0,0,0,.5-1.6c0-.5-.5-1.1-1.5-1.7a5.56,5.56,0,0,0-2.5-.8q-1.2,0-1.2,1.5a2.49,2.49,0,0,0,.1.8c0,.3.1.6.1,1a19.4,19.4,0,0,1-1.2,5.6c.1-.3-.5-1.3-1.8-2.8S492,357.21,491.81,357Z" transform="translate(-133.19 -322.24)"/><path class="cls-2" d="M323.11,341.41a2.57,2.57,0,0,0,.7,1.5c.9.8,1.3,2.8,1.3,5.9,0,1.8-.2,3.9-.4,6.4-3.2.6-5.8,1.1-8.1,1.3-1.4.1-2.1.5-2.1,1s.4,1.1,1.3,1.5a4.75,4.75,0,0,0,2.5.7,16.9,16.9,0,0,0,3-.3c1.1-.2,2.2-.4,3.1-.6a25.81,25.81,0,0,1-2.7,8.8,29.46,29.46,0,0,1-6.6,8.4,2.4,2.4,0,0,0-.9,1.7.86.86,0,0,0,.3.6,42.16,42.16,0,0,0-4.3-.9,10.36,10.36,0,0,0,.3-2.8,8.65,8.65,0,0,0-1.1-4,4.31,4.31,0,0,1-.3-1.7,7.5,7.5,0,0,1,2.5-5.3,2.13,2.13,0,0,0,.7-1.6c0-.5-.6-1.2-1.9-2a6.27,6.27,0,0,0-2.9-1.2,2.46,2.46,0,0,0-1.5.5,9,9,0,0,1-2.7,1.8,9.72,9.72,0,0,1-3,.9c-1,.1-1.5.5-1.5,1.1a1.56,1.56,0,0,0,1.2,1.5,5.61,5.61,0,0,0,2.3.6,9.3,9.3,0,0,0,2.4-.5c.9-.3,1.4-.4,1.6-.5-.1.1-.1.1-.1.2A11.62,11.62,0,0,0,305,369a7.73,7.73,0,0,0,1.4,4,7,7,0,0,1,1.2,4.2,8.52,8.52,0,0,0-3.3.7,19.09,19.09,0,0,1-5.1,1.2c-1,0-1.5.4-1.5,1.4s.6,1.6,1.7,2.1a9,9,0,0,0,2.6.6,2.3,2.3,0,0,0,1.4-.4,10.8,10.8,0,0,1,5.9-1.9,12.75,12.75,0,0,1,4.2.7l8.4,3c2.7.9,5.2,1.7,7.6,2.4a38.32,38.32,0,0,0,4.5,1.3,12.75,12.75,0,0,0,1.9.1,6.62,6.62,0,0,0,1.5-.1c.4-.1,1.7-.5,3.8-1.3.7-.3,1.3-.5,1.8-.7,1.5-.6,2.8-1.2,4-1.7a14.52,14.52,0,0,0,3.2-1.9,1.56,1.56,0,0,0,.8-1.3c0-.6-.6-.9-1.9-.9-.3,0-2,.2-5.2.6a2.77,2.77,0,0,1-.9.1,61.13,61.13,0,0,1-8.6.5,55.2,55.2,0,0,1-8.1-.6c-2.6-.5-5.7-1.2-9.2-2.1a16.69,16.69,0,0,0-1.8-.5c.9-.1,2.8-1.3,5.6-3.6a19.6,19.6,0,0,0,6.2-10.5,117.18,117.18,0,0,1,8.1,10.6c1.3,1.6,2.4,2.5,3.5,2.5s1.7-1.1,1.7-3.1a6.87,6.87,0,0,0-.9-3.6,16,16,0,0,0-2.6-2.7,37.32,37.32,0,0,0-3.8-2.8,25.53,25.53,0,0,0-5.5-2.7,32.69,32.69,0,0,0,.9-4.4c2.9-.4,5.3-.8,7.1-1a12.65,12.65,0,0,0,4.3-1.1c.9-.6,1.4-1.2,1.4-1.9a1.56,1.56,0,0,0-1.2-1.5,7.49,7.49,0,0,0-3.1-.5,7.36,7.36,0,0,0-3.7,1c-1.3.4-2.7.8-4.4,1.2.8-5,1.3-8.2,1.7-9.4a5,5,0,0,0,.4-1.6c0-1-.8-1.8-2.3-2.4a10.12,10.12,0,0,0-4-1C323.71,340,323.11,340.51,323.11,341.41Z" transform="translate(-133.19 -322.24)"/></svg>